HIERARCHY
ROOT Hips
{
    OFFSET 0.000000 0.000000 0.000000
    CHANNELS 6 Xposition Yposition Zposition Zrotation Xrotation Yrotation
    JOINT Spine
    {
        OFFSET -0.000000 0.068295 0.000000
        CHANNELS 3 Zrotation Xrotation Yrotation
        JOINT Spine1
        {
            OFFSET -0.000000 0.198479 0.000000
            CHANNELS 3 Zrotation Xrotation Yrotation
            JOINT Neck
            {
                OFFSET -0.000000 0.215136 0.000000
                CHANNELS 3 Zrotation Xrotation Yrotation
                JOINT Head
                {
                    OFFSET -0.000000 0.090366 0.016657
                    CHANNELS 3 Zrotation Xrotation Yrotation
                    End Site
                    {
                        OFFSET -0.000000 0.166573 0.000000
                    }
                }
            }
            JOINT LeftShoulder
            {
                OFFSET 0.033522 0.175145 -0.001055
                CHANNELS 3 Zrotation Xrotation Yrotation
                JOINT LeftArm
                {
                    OFFSET 0.121214 0.000000 0.000000
                    CHANNELS 3 Zrotation Xrotation Yrotation
                    JOINT LeftForeArm
                    {
                        OFFSET 0.261115 0.000000 0.000000
                        CHANNELS 3 Zrotation Xrotation Yrotation
                        JOINT LeftHand
                        {
                            OFFSET 0.230096 0.000000 0.000000
                            CHANNELS 3 Zrotation Xrotation Yrotation
                            End Site
                            {
                                OFFSET 0.000000 -0.124930 0.000000
                            }
                        }
                    }
                }
            }
            JOINT RightShoulder
            {
                OFFSET -0.033103 0.175145 -0.001055
                CHANNELS 3 Zrotation Xrotation Yrotation
                JOINT RightArm
                {
                    OFFSET -0.121214 0.000000 0.000000
                    CHANNELS 3 Zrotation Xrotation Yrotation
                    JOINT RightForeArm
                    {
                        OFFSET -0.261115 0.000000 0.000000
                        CHANNELS 3 Zrotation Xrotation Yrotation
                        JOINT RightHand
                        {
                            OFFSET -0.230096 0.000000 0.000000
                            CHANNELS 3 Zrotation Xrotation Yrotation
                            End Site
                            {
                                OFFSET -0.000000 -0.124930 0.000000
                            }
                        }
                    }
                }
            }
        }
    }
    JOINT LeftUpLeg
    {
        OFFSET 0.083287 0.000000 0.000000
        CHANNELS 3 Zrotation Xrotation Yrotation
        JOINT LeftLeg
        {
            OFFSET -0.000000 -0.281128 0.000000
            CHANNELS 3 Zrotation Xrotation Yrotation
            JOINT LeftFoot
            {
                OFFSET -0.000000 -0.491911 0.000000
                CHANNELS 3 Zrotation Xrotation Yrotation
                JOINT LeftToeBase
                {
                    OFFSET -0.000000 -0.054136 0.124930
                    CHANNELS 3 Zrotation Xrotation Yrotation
                    End Site
                    {
                        OFFSET -0.000000 0.000000 0.033315
                    }
                }
            }
        }
    }
    JOINT RightUpLeg
    {
        OFFSET -0.083287 0.000000 0.000000
        CHANNELS 3 Zrotation Xrotation Yrotation
        JOINT RightLeg
        {
            OFFSET -0.000000 -0.281128 0.000000
            CHANNELS 3 Zrotation Xrotation Yrotation
            JOINT RightFoot
            {
                OFFSET -0.000000 -0.491911 0.000000
                CHANNELS 3 Zrotation Xrotation Yrotation
                JOINT RightToeBase
                {
                    OFFSET -0.000000 -0.054136 0.124930
                    CHANNELS 3 Zrotation Xrotation Yrotation
                    End Site
                    {
                        OFFSET -0.000000 0.000000 0.033315
                    }
                }
            }
        }
    }
}
MOTION
Frames:    8
Frame Time:    0.010000
0.016998    0.803964    0.039497    -8.802037    -0.002561    -99.543396    -3.507878    1.958327    -1.142900    1.482448    7.228526    -0.497249    -1.130397    0.213036    -12.911517    5.778729    -0.556097    -14.189449    13.600738    -0.337593    -0.488849    -22.145599    -0.237182    -1.744560    -0.319312    6.954184    -1.887432    96.271873    -1.494218    -6.867095    -15.062332    -4.043396    0.770410    25.059799    6.043725    -1.337573    0.796589    -3.735421    -3.739341    -93.037514    -5.225769    -3.848121    -3.438455    19.235567    4.820418    -0.143073    0.580800    -1.781076    9.667620    -17.410046    48.670635    0.000000    0.000000    0.000000    -0.821435    17.505049    -4.585348    1.158365    0.477298    -0.712751    -4.415724    -22.083366    -30.040499    0.000000    0.000000    0.000000    
0.016476    0.803914    0.039344    -8.866457    0.003693    -99.495407    -3.531559    1.953230    -1.173611    1.506190    7.330065    -0.510360    -1.118547    0.228466    -13.122635    5.794744    -0.563370    -14.406905    13.611918    -0.395327    -0.516748    -22.134783    -0.206097    -1.719534    -0.356542    6.790591    -1.934442    96.625206    -1.678448    -6.687457    -15.072699    -4.078330    0.724952    25.035397    6.089231    -1.344839    0.811269    -3.705479    -3.726472    -93.109344    -5.208712    -3.820629    -3.440413    19.314152    4.887936    -0.118566    0.614009    -1.822946    9.711061    -17.314356    48.726807    0.000000    0.000000    0.000000    -0.789494    17.612156    -4.652584    1.136576    0.478862    -0.730269    -4.428148    -22.106379    -30.034336    0.000000    0.000000    0.000000    
0.015930    0.803858    0.039181    -8.944945    0.018760    -99.453812    -3.550272    1.968216    -1.196509    1.538991    7.408076    -0.521492    -1.123443    0.270214    -13.315539    5.826582    -0.581237    -14.609489    13.608161    -0.368933    -0.538947    -22.113613    -0.223448    -1.753897    -0.328400    6.943998    -1.886764    96.491409    -1.508321    -6.853104    -15.082386    -4.057736    0.697354    24.982433    6.015011    -1.368464    1.153562    -2.922827    -3.862453    -94.268990    -4.657279    -3.057667    -3.414688    19.425898    4.926388    -0.127730    0.626538    -1.876752    9.722515    -17.312567    48.726250    0.000000    0.000000    0.000000    -0.744185    17.707399    -4.697286    1.102214    0.523261    -0.800478    -4.407483    -22.116568    -29.988001    0.000000    0.000000    0.000000    
0.015440    0.803789    0.039070    -9.011159    0.017485    -99.410080    -3.579914    1.967953    -1.221316    1.565821    7.492861    -0.533057    -1.063735    0.340896    -13.559305    5.692377    -0.606434    -14.835576    13.608102    -0.354694    -0.563214    -22.103071    -0.195086    -1.785548    -0.256275    6.999126    -1.860209    96.314682    -1.709667    -6.900686    -15.098064    -4.059268    0.671211    24.960014    6.039604    -1.375962    1.140708    -2.922877    -3.861793    -94.271271    -4.672890    -3.058856    -3.349439    19.537304    4.902211    -0.220004    0.616012    -1.949507    9.801640    -17.293205    48.792458    0.000000    0.000000    0.000000    -0.730245    17.787708    -4.743859    1.086227    0.569712    -0.814426    -4.420056    -22.145634    -29.973391    0.000000    0.000000    0.000000    
0.014857    0.803707    0.038951    -9.094429    0.019249    -99.372482    -3.602193    1.962203    -1.238535    1.584285    7.604589    -0.541556    -1.069378    0.335257    -13.732059    5.707774    -0.540595    -15.019149    13.615282    -0.346578    -0.585332    -22.085217    -0.292485    -1.807399    -0.365499    6.696855    -1.967071    96.780411    -1.807105    -6.583579    -15.096655    -4.077072    0.651302    24.892687    5.990896    -1.419904    1.271338    -3.272731    -3.610356    -94.751381    -3.952241    -3.396748    -3.368213    19.655888    4.908610    -0.184208    0.627476    -1.932891    9.767386    -17.417793    48.635143    0.000000    0.000000    0.000000    -0.716752    17.884844    -4.777754    1.068810    0.621011    -0.831302    -4.418501    -22.171684    -29.957497    0.000000    0.000000    0.000000    
0.014322    0.803622    0.038853    -9.173944    0.022164    -99.324997    -3.608736    1.977752    -1.276838    1.582341    7.676793    -0.555333    -1.147701    0.287581    -13.788816    5.949692    -0.416621    -15.123221    13.603754    -0.326129    -0.598925    -22.058558    -0.316369    -1.825568    -0.349451    6.681982    -2.002915    96.942963    -1.873689    -6.562243    -15.101784    -4.089630    0.643338    24.875780    6.009861    -1.434489    1.235371    -3.265723    -3.616171    -94.736313    -3.944043    -3.389948    -3.372393    19.714245    5.035985    -0.161073    0.715756    -2.030363    9.743616    -17.500690    48.574837    0.000000    0.000000    0.000000    -0.705019    17.963409    -4.806846    1.057037    0.701989    -0.869031    -4.433628    -22.164633    -29.954508    0.000000    0.000000    0.000000    
0.013728    0.803560    0.038727    -9.257455    0.027238    -99.280701    -3.623482    1.967353    -1.298471    1.592637    7.781159    -0.564787    -1.143626    0.346738    -13.957079    5.988081    -0.402592    -15.301784    13.596648    -0.322166    -0.617804    -22.043854    -0.289780    -1.866213    -0.328719    6.656822    -2.012483    96.955269    -1.899457    -6.535660    -15.106346    -4.131662    0.631932    24.837175    6.003700    -1.477646    0.859068    -4.101449    -3.446240    -93.267380    -4.712508    -4.210156    -3.469363    19.742891    5.216954    0.002126    0.847589    -2.038874    9.628184    -17.604580    48.400841    0.000000    0.000000    0.000000    -0.687753    18.071884    -4.863286    1.039739    0.744461    -0.826407    -4.466560    -22.200502    -29.985678    0.000000    0.000000    0.000000    
0.013178    0.803485    0.038584    -9.335918    0.038294    -99.231033    -3.630991    1.971347    -1.330208    1.596343    7.863136    -0.576804    -1.130971    0.385679    -14.084571    6.042720    -0.376569    -15.439625    13.580038    -0.303292    -0.636210    -22.007402    -0.289272    -1.889430    -0.293274    6.724479    -2.050258    96.815666    -1.556995    -6.626549    -15.096142    -4.147909    0.634143    24.790129    6.001626    -1.517754    0.880632    -4.049571    -3.434674    -93.317398    -4.699636    -4.159405    -3.441894    19.836681    5.256520    -0.009374    0.888539    -2.148298    9.637970    -17.632666    48.413765    0.000000    0.000000    0.000000    -0.658173    18.172167    -4.886479    1.022793    0.781963    -0.875144    -4.442405    -22.203691    -29.942636    0.000000    0.000000    0.000000    
